<svg width="64" height="17" viewBox="0 0 64 17" fill="none" xmlns="http://www.w3.org/2000/svg">
<path d="M13.82 5.76C14.4067 5.76 14.9133 5.74 15.34 5.7V6.1C15.06 6.14 14.8133 6.26667 14.6 6.48C14.3867 6.68 14.2 7.02 14.04 7.5L11.14 16.1H10.8L7.64 8.06L4.78 16.1H4.44L1.16 7.24C0.973333 6.77333 0.78 6.47333 0.58 6.34C0.393333 6.19333 0.2 6.12 0 6.12V5.7C0.52 5.78 1.10667 5.82 1.76 5.82C2.42667 5.82 3.29333 5.78 4.36 5.7V6.12C3.86667 6.12 3.50667 6.16 3.28 6.24C3.06667 6.32 2.96 6.52667 2.96 6.86C2.96 7.1 3.02667 7.41333 3.16 7.8L5.16 13.56L8.04 5.62H8.5L11.56 13.7L13.44 7.98C13.56 7.62 13.62 7.32 13.62 7.08C13.62 6.76 13.5067 6.52667 13.28 6.38C13.0533 6.23333 12.6733 6.14 12.14 6.1V5.7C12.8467 5.74 13.4067 5.76 13.82 5.76ZM18.2506 0.699999C18.5973 0.699999 18.8973 0.826666 19.1506 1.08C19.404 1.33333 19.5306 1.63333 19.5306 1.98C19.5306 2.32667 19.404 2.62667 19.1506 2.88C18.8973 3.13333 18.5973 3.26 18.2506 3.26C17.904 3.26 17.604 3.13333 17.3506 2.88C17.0973 2.62667 16.9706 2.32667 16.9706 1.98C16.9706 1.63333 17.0973 1.33333 17.3506 1.08C17.604 0.826666 17.904 0.699999 18.2506 0.699999ZM19.2906 14.14C19.2906 14.6867 19.404 15.0667 19.6306 15.28C19.8573 15.48 20.2506 15.58 20.8106 15.58V16C19.584 15.9467 18.7773 15.92 18.3906 15.92C18.004 15.92 17.1973 15.9467 15.9706 16V15.58C16.5306 15.58 16.924 15.48 17.1506 15.28C17.3773 15.0667 17.4906 14.6867 17.4906 14.14V7.88C17.4906 7.26667 17.3773 6.82 17.1506 6.54C16.924 6.26 16.5306 6.12 15.9706 6.12V5.7C16.3973 5.74 16.8106 5.76 17.2106 5.76C18.0506 5.76 18.744 5.66667 19.2906 5.48V14.14ZM28.55 5.42C29.4833 5.42 30.19 5.67333 30.67 6.18C30.9233 6.44667 31.1033 6.78 31.21 7.18C31.3167 7.58 31.37 8.12 31.37 8.8V14.14C31.37 14.6867 31.4833 15.0667 31.71 15.28C31.9367 15.48 32.33 15.58 32.89 15.58V16C31.6633 15.9467 30.8633 15.92 30.49 15.92C30.1167 15.92 29.37 15.9467 28.25 16V15.58C28.7433 15.58 29.0833 15.48 29.27 15.28C29.47 15.0667 29.57 14.6867 29.57 14.14V8.36C29.57 7.61333 29.4633 7.04667 29.25 6.66C29.0367 6.26 28.6033 6.06 27.95 6.06C27.4033 6.06 26.9167 6.22 26.49 6.54C26.0633 6.86 25.73 7.3 25.49 7.86C25.2633 8.40667 25.15 9.02 25.15 9.7V14.14C25.15 14.6867 25.2433 15.0667 25.43 15.28C25.63 15.48 25.9767 15.58 26.47 15.58V16C25.35 15.9467 24.6033 15.92 24.23 15.92C23.8567 15.92 23.0567 15.9467 21.83 16V15.58C22.39 15.58 22.7833 15.48 23.01 15.28C23.2367 15.0667 23.35 14.6867 23.35 14.14V7.88C23.35 7.26667 23.2367 6.82 23.01 6.54C22.7833 6.26 22.39 6.12 21.83 6.12V5.7C22.2567 5.74 22.67 5.76 23.07 5.76C23.91 5.76 24.6033 5.66667 25.15 5.48V7.84C25.4833 6.98667 25.9433 6.37333 26.53 6C27.13 5.61333 27.8033 5.42 28.55 5.42ZM39.5436 14.64C40.6369 14.64 41.5169 14.1067 42.1836 13.04L42.5436 13.16C42.2769 14.0267 41.7969 14.7667 41.1036 15.38C40.4236 15.98 39.5703 16.28 38.5436 16.28C37.1303 16.28 36.0036 15.8333 35.1636 14.94C34.3369 14.0333 33.9236 12.7 33.9236 10.94C33.9236 9.14 34.3703 7.76667 35.2636 6.82C36.1569 5.86 37.3436 5.38 38.8236 5.38C41.3303 5.38 42.5836 6.86 42.5836 9.82H36.9636C36.9503 10.02 36.9436 10.3333 36.9436 10.76C36.9436 11.64 37.0636 12.3733 37.3036 12.96C37.5569 13.5467 37.8769 13.9733 38.2636 14.24C38.6636 14.5067 39.0903 14.64 39.5436 14.64ZM38.7036 5.8C38.2236 5.8 37.8236 6.1 37.5036 6.7C37.1969 7.28667 37.0036 8.2 36.9236 9.44H40.0636C40.0903 8.38667 39.9836 7.52 39.7436 6.84C39.5169 6.14667 39.1703 5.8 38.7036 5.8ZM50.5045 5.38C51.1045 5.38 51.5579 5.56 51.8645 5.92C52.1712 6.28 52.3245 6.71333 52.3245 7.22C52.3245 7.71333 52.1779 8.12 51.8845 8.44C51.6045 8.74667 51.2312 8.9 50.7645 8.9C50.3112 8.9 49.9512 8.78667 49.6845 8.56C49.4179 8.32 49.2845 8.00667 49.2845 7.62C49.2845 6.98 49.5779 6.46 50.1645 6.06C50.1112 6.04667 50.0312 6.04 49.9245 6.04C49.7912 6.04 49.6845 6.05333 49.6045 6.08C49.0979 6.16 48.6645 6.46667 48.3045 7C47.9579 7.53333 47.7845 8.08 47.7845 8.64V13.94C47.7845 14.5533 47.9312 14.98 48.2245 15.22C48.5312 15.46 49.0112 15.58 49.6645 15.58V16C49.4779 16 49.3245 15.9933 49.2045 15.98C47.8445 15.94 46.9379 15.92 46.4845 15.92C46.1245 15.92 45.3045 15.94 44.0245 15.98C43.9179 15.9933 43.7845 16 43.6245 16V15.58C44.1045 15.58 44.4379 15.48 44.6245 15.28C44.8112 15.0667 44.9045 14.6867 44.9045 14.14V7.84C44.9045 7.22667 44.8112 6.78 44.6245 6.5C44.4379 6.22 44.1045 6.08 43.6245 6.08V5.66C44.0512 5.7 44.4645 5.72 44.8645 5.72C46.0512 5.72 47.0245 5.62667 47.7845 5.44V7.3C48.0379 6.72667 48.4045 6.26667 48.8845 5.92C49.3645 5.56 49.9045 5.38 50.5045 5.38ZM62.527 13.8C62.527 14.4133 62.6204 14.86 62.807 15.14C62.9937 15.42 63.327 15.56 63.807 15.56V15.98C63.3937 15.94 62.9804 15.92 62.567 15.92C61.3804 15.92 60.407 16.0133 59.647 16.2V14.48C59.1937 15.68 58.327 16.28 57.047 16.28C55.7937 16.28 54.7937 15.8267 54.047 14.92C53.3137 14 52.9537 12.62 52.967 10.78C52.967 9.60667 53.1537 8.62 53.527 7.82C53.9137 7.00667 54.4404 6.4 55.107 6C55.787 5.58667 56.5604 5.38 57.427 5.38C58.4004 5.38 59.1404 5.63333 59.647 6.14V2.74C59.647 2.12667 59.547 1.68 59.347 1.4C59.1604 1.12 58.8337 0.979999 58.367 0.979999V0.56C58.7937 0.599999 59.207 0.619999 59.607 0.619999C60.767 0.619999 61.7404 0.526666 62.527 0.339999V13.8ZM57.867 15.42C58.307 15.42 58.6937 15.26 59.027 14.94C59.3737 14.62 59.5804 14.1867 59.647 13.64V6.64C59.3137 6.18667 58.827 5.96 58.187 5.96C57.4804 5.96 56.9337 6.36667 56.547 7.18C56.1604 7.99333 55.9737 9.20667 55.987 10.82C55.9737 12.4467 56.127 13.62 56.447 14.34C56.7804 15.06 57.2537 15.42 57.867 15.42Z" fill="#192A3E"/>
</svg>
